<?xml version="1.0"?><svg viewBox="0 0 512 512" xmlns="http://www.w3.org/2000/svg"><title/><g data-name="1" id="_1"><path d="M315,370.9H213.1a15,15,0,0,1,0-30H315a15,15,0,0,1,0,30Z"/><path d="M441.13,370.9h-34.4a15,15,0,0,1,0-30h19.4V259.21a16.38,16.38,0,0,0-16.36-16.36H374.24a15,15,0,0,1-15-15V163.37a20,20,0,0,0-20-20h-42.6a15,15,0,0,1,0-30h42.6a50,50,0,0,1,50,50v49.48h20.53a46.41,46.41,0,0,1,46.36,46.36V355.9A15,15,0,0,1,441.13,370.9Z"/><path d="M167.22,416.75a60.87,60.87,0,1,1,60.87-60.86A60.93,60.93,0,0,1,167.22,416.75Zm0-91.73a30.87,30.87,0,1,0,30.87,30.87A30.9,30.9,0,0,0,167.22,325Z"/><path d="M360.86,416.75a60.87,60.87,0,1,1,60.87-60.86A60.93,60.93,0,0,1,360.86,416.75Zm0-91.73a30.87,30.87,0,1,0,30.87,30.87A30.9,30.9,0,0,0,360.86,325Z"/><path d="M374.24,242.85H296.65a15,15,0,0,1,0-30h77.59a15,15,0,0,1,0,30Z"/><path d="M360.86,370.89a14.48,14.48,0,0,1-1.47-.08,14.28,14.28,0,0,1-1.46-.22,11.35,11.35,0,0,1-1.42-.36c-.47-.14-.93-.31-1.39-.49s-.89-.4-1.32-.63a14.43,14.43,0,0,1-1.26-.75,15.41,15.41,0,0,1-2.29-1.87c-.34-.34-.67-.71-1-1.09s-.6-.78-.87-1.19a14.43,14.43,0,0,1-.75-1.26c-.23-.43-.44-.88-.63-1.33a13.29,13.29,0,0,1-.49-1.38,11.81,11.81,0,0,1-.36-1.42,14.28,14.28,0,0,1-.22-1.46,14.48,14.48,0,0,1-.08-1.47,14.68,14.68,0,0,1,.08-1.48,14.51,14.51,0,0,1,.22-1.45,12,12,0,0,1,.36-1.43,13.29,13.29,0,0,1,.49-1.38c.19-.45.4-.9.63-1.33s.48-.85.75-1.26.57-.81.87-1.18.65-.75,1-1.1a14.67,14.67,0,0,1,1.1-1,14.5,14.5,0,0,1,1.19-.87,12.39,12.39,0,0,1,1.26-.76,13.2,13.2,0,0,1,1.32-.62,14.43,14.43,0,0,1,1.39-.5c.46-.14.94-.26,1.42-.36a14.28,14.28,0,0,1,1.46-.22,14.68,14.68,0,0,1,4.4.22c.48.1,1,.22,1.43.36a14.25,14.25,0,0,1,1.38.5,13.36,13.36,0,0,1,1.33.62,13.59,13.59,0,0,1,1.26.76,12.82,12.82,0,0,1,1.18.87,14.67,14.67,0,0,1,1.1,1c.34.35.68.71,1,1.1a12.82,12.82,0,0,1,.87,1.18c.27.41.53.83.76,1.26s.44.88.62,1.33a13.35,13.35,0,0,1,.5,1.38c.14.47.26,1,.36,1.43s.17,1,.22,1.45a14.66,14.66,0,0,1,.07,1.48,14.46,14.46,0,0,1-.07,1.47c-.05.49-.13,1-.22,1.46s-.22.95-.36,1.42a13.35,13.35,0,0,1-.5,1.38c-.18.45-.4.9-.62,1.33a16.64,16.64,0,0,1-1.63,2.45c-.31.38-.65.75-1,1.09a14.67,14.67,0,0,1-1.1,1,12.91,12.91,0,0,1-1.18.88q-.62.4-1.26.75c-.43.23-.88.44-1.33.63s-.92.35-1.38.49a12,12,0,0,1-1.43.36,14.51,14.51,0,0,1-1.45.22A14.68,14.68,0,0,1,360.86,370.89Z"/><path d="M167.22,370.89a14.48,14.48,0,0,1-1.47-.08,14.28,14.28,0,0,1-1.46-.22,11.81,11.81,0,0,1-1.42-.36c-.47-.14-.93-.31-1.38-.49s-.9-.4-1.33-.63a14.43,14.43,0,0,1-1.26-.75,14.61,14.61,0,0,1-1.19-.88,15.33,15.33,0,0,1-2.08-2.08,14.61,14.61,0,0,1-.88-1.19A14.43,14.43,0,0,1,154,363c-.23-.43-.44-.88-.63-1.33s-.35-.91-.49-1.38a12.31,12.31,0,0,1-.36-1.42,14.28,14.28,0,0,1-.22-1.46,14.48,14.48,0,0,1-.08-1.47,14.68,14.68,0,0,1,.08-1.48,14.51,14.51,0,0,1,.22-1.45,12,12,0,0,1,.36-1.43c.14-.47.31-.93.49-1.38s.4-.9.63-1.33.48-.85.75-1.26a15.11,15.11,0,0,1,3-3.27,16.64,16.64,0,0,1,2.45-1.63,16.57,16.57,0,0,1,2.71-1.12c.47-.14.94-.26,1.42-.36a14.28,14.28,0,0,1,1.46-.22,14.68,14.68,0,0,1,4.4.22c.48.1,1,.22,1.43.36a14.25,14.25,0,0,1,1.38.5,13.36,13.36,0,0,1,1.33.62c.43.23.85.49,1.26.76a14.41,14.41,0,0,1,3.27,3c.31.37.6.77.88,1.18s.52.83.75,1.26.44.88.63,1.33.35.91.49,1.38.26,1,.36,1.43a14.51,14.51,0,0,1,.22,1.45,14.66,14.66,0,0,1,.07,1.48,14.46,14.46,0,0,1-.07,1.47,14.28,14.28,0,0,1-.22,1.46c-.1.47-.22.95-.36,1.42s-.31.93-.49,1.38-.4.9-.63,1.33a14.43,14.43,0,0,1-.75,1.26c-.28.41-.57.81-.88,1.19a12.8,12.8,0,0,1-1,1.09,16,16,0,0,1-2.28,1.87q-.62.4-1.26.75c-.43.23-.88.44-1.33.63s-.92.35-1.38.49a12,12,0,0,1-1.43.36,14.51,14.51,0,0,1-1.45.22A14.68,14.68,0,0,1,167.22,370.89Z"/><path d="M296.64,370.9H213.1a15,15,0,0,1,0-30h68.54V111.25H84.13V340.9h37.24a15,15,0,0,1,0,30H69.13a15,15,0,0,1-15-15V96.25a15,15,0,0,1,15-15H296.64a15,15,0,0,1,15,15V355.9A15,15,0,0,1,296.64,370.9Z"/><path d="M441.13,292H421a15,15,0,0,1,0-30h20.13a15,15,0,0,1,0,30Z"/></g></svg>