<?xml version="1.0"?><svg viewBox="0 0 32 32" xmlns="http://www.w3.org/2000/svg"><defs><style>.cls-1{fill:#77acf1;}.cls-2{fill:#04009a;}</style></defs><g data-name="26. Shipping" id="_26._Shipping"><rect class="cls-1" height="3" width="4" x="7" y="4"/><path class="cls-1" d="M10,14h4a0,0,0,0,1,0,0v2a0,0,0,0,1,0,0H10a1,1,0,0,1-1-1v0A1,1,0,0,1,10,14Z"/><path class="cls-2" d="M31.79,16.39A1,1,0,0,0,31,16H28V13a1,1,0,0,0-1-1H25V7a1,1,0,0,0-1-1H18a1,1,0,0,0-1,1v5H16V11a1,1,0,0,0-1-1H12V4a1,1,0,0,0-1-1H7A1,1,0,0,0,6,4v6H4a1,1,0,0,0-1,1v6H1a1,1,0,0,0-.77.37A1,1,0,0,0,0,18.2L1.7,26.59A3,3,0,0,0,4.64,29H26.47a3,3,0,0,0,2.9-2.21L32,17.26A1,1,0,0,0,31.79,16.39ZM26,16H22V14h4ZM19,8h4v4H19Zm-1,6h2v2.59L18.59,18H16V14ZM8,5h2v5H8ZM5,12h9v6H9.41l-.7-.71A1,1,0,0,0,8,17H5ZM27.44,26.26a1,1,0,0,1-1,.74H4.64a1,1,0,0,1-1-.8L3.42,25H24a1,1,0,0,0,0-2H3l-.8-4H7.59l.7.71A1,1,0,0,0,9,20H19a1,1,0,0,0,.71-.29L21.41,18h8.28Z"/></g></svg>