<?xml version="1.0"?><!DOCTYPE svg  PUBLIC '-//W3C//DTD SVG 1.1//EN'  'http://www.w3.org/Graphics/SVG/1.1/DTD/svg11.dtd'><svg height="100%" style="fill-rule:evenodd;clip-rule:evenodd;stroke-linejoin:round;stroke-miterlimit:2;" version="1.1" viewBox="0 0 32 32" width="100%" xml:space="preserve" xmlns="http://www.w3.org/2000/svg" xmlns:serif="http://www.serif.com/" xmlns:xlink="http://www.w3.org/1999/xlink"><path d="M24,9.854l-0,-0.849c-0,-0.796 -0.316,-1.559 -0.879,-2.121c-0.562,-0.563 -1.325,-0.879 -2.121,-0.879c-3.832,0 -12.168,0 -16,0c-0.796,0 -1.559,0.316 -2.121,0.879c-0.563,0.562 -0.879,1.325 -0.879,2.121l0,14.004c0,0.796 0.316,1.559 0.879,2.122c0.562,0.562 1.325,0.878 2.121,0.878c3.832,0 12.168,0 16,0c0.796,0 1.559,-0.316 2.121,-0.878c0.563,-0.563 0.879,-1.326 0.879,-2.122l0,-0.867l4.361,3.627c0.298,0.248 0.712,0.301 1.064,0.136c0.351,-0.164 0.575,-0.517 0.575,-0.905l-0,-18.004c0,-0.388 -0.224,-0.741 -0.575,-0.906c-0.352,-0.164 -0.766,-0.111 -1.064,0.137l-4.361,3.627Zm-2,13.155l-0,-14.004c-0,-0.265 -0.105,-0.519 -0.293,-0.707c-0.187,-0.187 -0.442,-0.293 -0.707,-0.293l-16,0c-0.265,0 -0.52,0.106 -0.707,0.293c-0.188,0.188 -0.293,0.442 -0.293,0.707c-0,0 0,14.004 0,14.004c0,0.266 0.105,0.52 0.293,0.707c0.187,0.188 0.442,0.293 0.707,0.293l16,0c0.265,0 0.52,-0.105 0.707,-0.293c0.188,-0.187 0.293,-0.441 0.293,-0.707Zm2,-10.553l0,7.084l4,3.327c0,0 0,-13.739 -0,-13.739l-4,3.328Z"/><path d="M9,10c-1.656,0 -3,1.344 -3,3c0,1.656 1.344,3 3,3c1.656,0 3,-1.344 3,-3c0,-1.656 -1.344,-3 -3,-3Zm0,2c0.552,0 1,0.448 1,1c0,0.552 -0.448,1 -1,1c-0.552,0 -1,-0.448 -1,-1c0,-0.552 0.448,-1 1,-1Z"/></svg>