<?xml version="1.0"?><!DOCTYPE svg  PUBLIC '-//W3C//DTD SVG 1.1//EN'  'http://www.w3.org/Graphics/SVG/1.1/DTD/svg11.dtd'><svg height="100%" style="fill-rule:evenodd;clip-rule:evenodd;stroke-linejoin:round;stroke-miterlimit:2;" version="1.1" viewBox="0 0 32 32" width="100%" xml:space="preserve" xmlns="http://www.w3.org/2000/svg" xmlns:serif="http://www.serif.com/" xmlns:xlink="http://www.w3.org/1999/xlink"><path d="M12.174,18.244l-8.892,9.05c-0.386,0.394 -0.381,1.027 0.013,1.414c0.394,0.387 1.027,0.381 1.414,-0.012l8.935,-9.095c0.221,0.418 0.346,0.895 0.346,1.4c0,0 0,6.977 0,6.977c0,0.552 0.448,1 1,1c0.552,0 1,-0.448 1,-1l0,-6.977c0,-2.761 -2.238,-5 -5,-5c-3.14,0 -6.984,0 -6.984,0c-0.552,0 -1,0.448 -1,1c-0,0.552 0.448,1 1,1l6.984,0c0.42,0 0.821,0.087 1.184,0.243Z"/><path d="M18.257,12.394c-0.179,-0.385 -0.28,-0.814 -0.28,-1.267c0,-0 0,-7.145 0,-7.145c0,-0.552 -0.448,-1 -1,-1c-0.552,0 -1,0.448 -1,1l0,7.145c0,2.761 2.239,5 5,5c3.139,0 6.981,0 6.981,0c0.552,0 1,-0.448 1,-1c-0,-0.552 -0.448,-1 -1,-1l-6.981,0c-0.473,0 -0.921,-0.11 -1.319,-0.305l8.988,-9.149c0.386,-0.393 0.381,-1.027 -0.013,-1.414c-0.394,-0.387 -1.027,-0.381 -1.414,0.013l-8.962,9.122Z"/></svg>