<?xml version="1.0"?><!DOCTYPE svg  PUBLIC '-//W3C//DTD SVG 1.1//EN'  'http://www.w3.org/Graphics/SVG/1.1/DTD/svg11.dtd'><svg height="100%" style="fill-rule:evenodd;clip-rule:evenodd;stroke-linejoin:round;stroke-miterlimit:2;" version="1.1" viewBox="0 0 32 32" width="100%" xml:space="preserve" xmlns="http://www.w3.org/2000/svg" xmlns:serif="http://www.serif.com/" xmlns:xlink="http://www.w3.org/1999/xlink"><path d="M6.63,26.687l7.401,-7.533c0.387,-0.394 0.381,-1.028 -0.012,-1.415c-0.394,-0.386 -1.028,-0.381 -1.415,0.013l-7.348,7.48c-0.165,-0.371 -0.256,-0.782 -0.256,-1.214c0,-0 0,-7.018 0,-7.018c-0,-0.552 -0.448,-1 -1,-1c-0.552,0 -1,0.448 -1,1l0,7.018c0,2.761 2.239,5 5,5c3.112,-0 6.905,-0 6.905,-0c0.552,-0 1,-0.448 1,-1c0,-0.552 -0.448,-1 -1,-1l-6.905,-0c-0.494,-0 -0.959,-0.12 -1.37,-0.331Z"/><path d="M25.233,5.244c-0.02,0.017 -0.039,0.036 -0.058,0.055l-7.607,7.743c-0.387,0.394 -0.381,1.027 0.013,1.414c0.393,0.387 1.027,0.381 1.414,-0.013l7.606,-7.742c0.035,-0.035 0.066,-0.072 0.095,-0.111c0.224,0.42 0.351,0.9 0.351,1.41c-0,0 -0,6.977 -0,6.977c-0,0.552 0.448,1 1,1c0.552,0 1,-0.448 1,-1l-0,-6.977c-0,-2.761 -2.239,-5 -5,-5c-3.162,0 -7.047,0 -7.047,0c-0.552,0 -1,0.448 -1,1c0,0.552 0.448,1 1,1c0,0 3.885,0 7.047,0c0.421,-0 0.823,0.087 1.186,0.244Z"/></svg>