<?xml version="1.0"?><!DOCTYPE svg  PUBLIC '-//W3C//DTD SVG 1.1//EN'  'http://www.w3.org/Graphics/SVG/1.1/DTD/svg11.dtd'><svg height="100%" style="fill-rule:evenodd;clip-rule:evenodd;stroke-linejoin:round;stroke-miterlimit:2;" version="1.1" viewBox="0 0 32 32" width="100%" xml:space="preserve" xmlns="http://www.w3.org/2000/svg" xmlns:serif="http://www.serif.com/" xmlns:xlink="http://www.w3.org/1999/xlink"><path d="M7.001,15.004l6.999,-0.004c0.335,-0 0.646,-0.167 0.832,-0.445l0.168,-0.253c0,-0 -0,2.697 -0,2.697c-0,0.405 0.243,0.769 0.617,0.924c0.374,0.155 0.804,0.07 1.09,-0.216l2.704,-2.704c0,-0 5.583,0.036 5.583,0.036c0.551,0.003 1.002,-0.442 1.006,-0.994c0.004,-0.552 -0.442,-1.003 -0.994,-1.006l-6,-0.039c-0.267,-0.002 -0.524,0.104 -0.713,0.293l-1.293,1.292c0,0 0.001,-3.585 0.001,-3.585c0,-0.441 -0.288,-0.83 -0.71,-0.957c-0.422,-0.128 -0.877,0.035 -1.122,0.402l-1.704,2.555c-0,0 -6.466,0.004 -6.466,0.004c-0.552,0 -0.999,0.449 -0.999,1.001c0,0.552 0.449,0.999 1.001,0.999Z"/><path d="M15.01,25.997l0,1.996l-4.009,-0.005c-0.552,-0.001 -1,0.446 -1.001,0.998c-0.001,0.552 0.447,1.001 0.999,1.002l10,0.012c0.552,0.001 1,-0.447 1.001,-0.999c0.001,-0.552 -0.447,-1 -0.999,-1.001l-3.991,-0.005l0,-1.998l9.99,0c0.796,0 1.559,-0.316 2.121,-0.878c0.563,-0.563 0.879,-1.326 0.879,-2.122l-0,-13.997c0,-0.796 -0.316,-1.559 -0.879,-2.121c-0.562,-0.563 -1.325,-0.879 -2.121,-0.879l-22,0c-0.796,0 -1.559,0.316 -2.121,0.879c-0.563,0.562 -0.879,1.325 -0.879,2.121c-0,3.463 -0,10.535 -0,13.997c-0,0.796 0.316,1.559 0.879,2.122c0.562,0.562 1.325,0.878 2.121,0.878l10.01,0Zm12.99,-3.997l-0,0.997c0,0.266 -0.105,0.52 -0.293,0.708c-0.187,0.187 -0.442,0.292 -0.707,0.292c-0,0 -22,0 -22,0c-0.265,0 -0.52,-0.105 -0.707,-0.292c-0.188,-0.188 -0.293,-0.442 -0.293,-0.708l-0,-0.997l24,0Zm-0,-2l-24,0l0,-11c-0,-0.265 0.105,-0.52 0.293,-0.707c0.187,-0.188 0.442,-0.293 0.707,-0.293c0,0 22,-0 22,-0c0.265,0 0.52,0.105 0.707,0.293c0.188,0.187 0.293,0.442 0.293,0.707l-0,11Z"/></svg>