<svg xmlns="http://www.w3.org/2000/svg" viewBox="0 0 64 64" width="64" height="64" role="img" aria-label="Harbor icon">
  <title>Harbor</title>
  <!-- Background -->
  <rect x="2" y="2" width="60" height="60" rx="12" fill="#0B1220"/>
  
  <!-- Water band -->
  <rect x="6" y="42" width="52" height="16" rx="4" fill="#1D84B5"/>
  <!-- subtle wave cutouts -->
  <path d="M8 46c2 3 6 3 8 0s6-3 8 0 6 3 8 0 6-3 8 0 6 3 8 0" fill="none" stroke="#0B1220" stroke-width="2" stroke-linecap="round"/>

  <!-- Dock / quay (right) -->
  <rect x="44" y="28" width="8" height="18" rx="2" fill="#E6EEF5"/>
  <!-- Simple crane -->
  <rect x="48" y="16" width="2" height="12" rx="1" fill="#E6EEF5"/>
  <path d="M49 18 L59 22" fill="none" stroke="#E6EEF5" stroke-width="2" stroke-linecap="round"/>
  <circle cx="59" cy="22" r="1.5" fill="#E6EEF5"/>

  <!-- Cargo ship (left) -->
  <path d="M10 40h16l4 6H12a4 4 0 0 1-4-4v-2z" fill="#E6EEF5"/>
  <!-- bridge -->
  <rect x="16" y="36" width="6" height="4" rx="1" fill="#E6EEF5"/>
  <!-- container block hint -->
  <rect x="22" y="36" width="4" height="3" rx="0.5" fill="#1D84B5"/>

  <!-- Sun -->
  <circle cx="14" cy="16" r="3.5" fill="#F4D35E"/>

  <!-- Tiny highlight line under ship bow for legibility -->
  <path d="M26 46h4" stroke="#0B1220" stroke-width="2" stroke-linecap="round"/>

  <!-- Dark/Light mode tweak (optional) -->
  <style>
    @media (prefers-color-scheme: light) {
      rect[x="2"] { fill: #FFFFFF; }
      .lstroke { stroke: #E6EEF5; }
    }
  </style>
</svg>
