<?xml version="1.0"?>
<svg viewBox="0 0 512 512" xmlns="http://www.w3.org/2000/svg">
  <title />
  <g id="Train">
    <path fill="#fea14e"
    stroke-width="10" stroke="#fff"
      d="M406.0981,370V85.0928a55.2568,55.2568,0,0,0-55.1909-55.1909H161.0928a55.2568,55.2568,0,0,0-55.1909,55.1909V370A17.0965,17.0965,0,0,0,123,387.0981h26.7964l-41.4639,69.107a17.1022,17.1022,0,0,0,29.335,17.59l52.018-86.6968h132.629l52.018,86.6968a17.1022,17.1022,0,1,0,29.335-17.59l-41.4639-69.107H389A17.0965,17.0965,0,0,0,406.0981,370ZM180.0035,341.5a28.5,28.5,0,1,1,28.5-28.5A28.4992,28.4992,0,0,1,180.0035,341.5Zm152,0a28.5,28.5,0,1,1,28.5-28.5A28.4992,28.4992,0,0,1,332.0035,341.5Zm39.8984-102.5981H140.0981V121.0981H371.9019Z" />
  </g>
</svg>