{
  "accessors": [
    {
      "bufferView": 2,
      "componentType": 5126,
      "count": 4774,
      "max": [
        315.2119140625,
        800.283203125,
        292.75775146484375
      ],
      "min": [
        -516.271240234375,
        -0.029580000787973404,
        -332.2384948730469
      ],
      "type": "VEC3"
    },
    {
      "bufferView": 2,
      "byteOffset": 57288,
      "componentType": 5126,
      "count": 4774,
      "max": [
        0.9998449087142944,
        0.9998905062675476,
        0.9996833205223083
      ],
      "min": [
        -0.9999262094497681,
        -0.9978724122047424,
        -0.9999571442604065
      ],
      "type": "VEC3"
    },
    {
      "bufferView": 3,
      "componentType": 5126,
      "count": 4774,
      "max": [
        0.9998841285705566,
        0.9996358752250671,
        0.9999530911445618,
        1.0
      ],
      "min": [
        -0.9999364018440247,
        -0.9993226528167725,
        -0.9997856020927429,
        -1.0
      ],
      "type": "VEC4"
    },
    {
      "bufferView": 1,
      "componentType": 5126,
      "count": 4774,
      "max": [
        0.9995099902153015,
        18.07328987121582
      ],
      "min": [
        0.0004900000058114529,
        0.0004900000058114529
      ],
      "type": "VEC2"
    },
    {
      "bufferView": 0,
      "componentType": 5125,
      "count": 22020,
      "type": "SCALAR"
    },
    {
      "bufferView": 2,
      "byteOffset": 114576,
      "componentType": 5126,
      "count": 1752,
      "max": [
        414.9792175292969,
        882.9645385742188,
        390.13818359375
      ],
      "min": [
        -638.2743530273438,
        60.915489196777344,
        -429.3894348144531
      ],
      "type": "VEC3"
    },
    {
      "bufferView": 2,
      "byteOffset": 135600,
      "componentType": 5126,
      "count": 1752,
      "max": [
        0.9067651033401489,
        0.9999414086341858,
        0.7882078289985657
      ],
      "min": [
        -0.9209299087524414,
        0.20075450837612152,
        -0.9570827484130859
      ],
      "type": "VEC3"
    },
    {
      "bufferView": 3,
      "byteOffset": 76384,
      "componentType": 5126,
      "count": 1752,
      "max": [
        0.998817503452301,
        0.9204792380332947,
        0.9987753033638,
        1.0
      ],
      "min": [
        -0.9989911913871765,
        -0.9738460183143616,
        -0.999358057975769,
        -1.0
      ],
      "type": "VEC4"
    },
    {
      "bufferView": 1,
      "byteOffset": 38192,
      "componentType": 5126,
      "count": 1752,
      "max": [
        0.9980199933052063,
        0.9980199933052063
      ],
      "min": [
        0.001979999942705035,
        0.001979999942705035
      ],
      "type": "VEC2"
    },
    {
      "bufferView": 0,
      "byteOffset": 88080,
      "componentType": 5125,
      "count": 3072,
      "type": "SCALAR"
    }
  ],
  "asset": {
    "extras": {
      "author": "evolveduk (https://sketchfab.com/evolveduk)",
      "license": "CC-BY-4.0 (http://creativecommons.org/licenses/by/4.0/)",
      "source": "https://sketchfab.com/3d-models/oak-tree-6468dd4d3eb240ef902b9057d9913606",
      "title": "Oak tree"
    },
    "generator": "Sketchfab-16.15.0",
    "version": "2.0"
  },
  "bufferViews": [
    {
      "buffer": 0,
      "byteLength": 100368,
      "name": "floatBufferViews",
      "target": 34963
    },
    {
      "buffer": 0,
      "byteLength": 52208,
      "byteOffset": 100368,
      "byteStride": 8,
      "name": "floatBufferViews",
      "target": 34962
    },
    {
      "buffer": 0,
      "byteLength": 156624,
      "byteOffset": 152576,
      "byteStride": 12,
      "name": "floatBufferViews",
      "target": 34962
    },
    {
      "buffer": 0,
      "byteLength": 104416,
      "byteOffset": 309200,
      "byteStride": 16,
      "name": "floatBufferViews",
      "target": 34962
    }
  ],
  "buffers": [
    {
      "byteLength": 413616,
      "uri": "scene.bin"
    }
  ],
  "images": [
    {
      "uri": "textures/mossybark02_0Mat_baseColor.png"
    },
    {
      "uri": "textures/mossybark02_0Mat_metallicRoughness.png"
    },
    {
      "uri": "textures/mossybark02_0Mat_normal.png"
    },
    {
      "uri": "textures/oak_leaf_1Mat_baseColor.png"
    },
    {
      "uri": "textures/oak_leaf_1Mat_metallicRoughness.png"
    },
    {
      "uri": "textures/oak_leaf_1Mat_normal.png"
    }
  ],
  "materials": [
    {
      "doubleSided": true,
      "name": "mossybark02_0Mat",
      "normalTexture": {
        "index": 2
      },
      "pbrMetallicRoughness": {
        "baseColorTexture": {
          "index": 0
        },
        "metallicFactor": 0.0,
        "metallicRoughnessTexture": {
          "index": 1
        }
      }
    },
    {
      "alphaCutoff": 0.2888138805901232,
      "alphaMode": "MASK",
      "doubleSided": true,
      "name": "oak_leaf_1Mat",
      "normalTexture": {
        "index": 5
      },
      "pbrMetallicRoughness": {
        "baseColorTexture": {
          "index": 3
        },
        "metallicFactor": 0.0,
        "metallicRoughnessTexture": {
          "index": 4
        }
      }
    }
  ],
  "meshes": [
    {
      "name": "mossybark02_0_mossybark02_0Mat_0",
      "primitives": [
        {
          "attributes": {
            "NORMAL": 1,
            "POSITION": 0,
            "TANGENT": 2,
            "TEXCOORD_0": 3
          },
          "indices": 4,
          "material": 0,
          "mode": 4
        }
      ]
    },
    {
      "name": "oak leaf_1_oak leaf_1Mat_0",
      "primitives": [
        {
          "attributes": {
            "NORMAL": 6,
            "POSITION": 5,
            "TANGENT": 7,
            "TEXCOORD_0": 8
          },
          "indices": 9,
          "material": 1,
          "mode": 4
        }
      ]
    }
  ],
  "nodes": [
    {
      "children": [
        1
      ],
      "matrix": [
        1.0,
        0.0,
        0.0,
        0.0,
        0.0,
        2.220446049250313e-16,
        -1.0,
        0.0,
        0.0,
        1.0,
        2.220446049250313e-16,
        0.0,
        0.0,
        0.0,
        0.0,
        1.0
      ],
      "name": "Sketchfab_model"
    },
    {
      "children": [
        2
      ],
      "matrix": [
        0.009999999776482582,
        0.0,
        0.0,
        0.0,
        0.0,
        0.0,
        0.009999999776482582,
        0.0,
        0.0,
        -0.009999999776482582,
        0.0,
        0.0,
        0.0,
        0.0,
        0.0,
        1.0
      ],
      "name": "oak.fbx"
    },
    {
      "children": [
        3
      ],
      "name": "RootNode"
    },
    {
      "children": [
        4,
        5
      ],
      "name": "mossybark02_0"
    },
    {
      "mesh": 0,
      "name": "mossybark02_0_mossybark02_0Mat_0"
    },
    {
      "children": [
        6
      ],
      "name": "oak leaf_1"
    },
    {
      "mesh": 1,
      "name": "oak leaf_1_oak leaf_1Mat_0"
    }
  ],
  "samplers": [
    {
      "magFilter": 9729,
      "minFilter": 9987,
      "wrapS": 10497,
      "wrapT": 10497
    }
  ],
  "scene": 0,
  "scenes": [
    {
      "name": "Sketchfab_Scene",
      "nodes": [
        0
      ]
    }
  ],
  "textures": [
    {
      "sampler": 0,
      "source": 0
    },
    {
      "sampler": 0,
      "source": 1
    },
    {
      "sampler": 0,
      "source": 2
    },
    {
      "sampler": 0,
      "source": 3
    },
    {
      "sampler": 0,
      "source": 4
    },
    {
      "sampler": 0,
      "source": 5
    }
  ]
}
