{
  "accessors": [
    {
      "bufferView": 2,
      "componentType": 5126,
      "count": 3216,
      "max": [
        42.58606719970703,
        52.45502471923828,
        44.66966247558594
      ],
      "min": [
        -287.701416015625,
        0.8680307269096375,
        -40.67316436767578
      ],
      "type": "VEC3"
    },
    {
      "bufferView": 2,
      "byteOffset": 38592,
      "componentType": 5126,
      "count": 3216,
      "max": [
        1.0,
        1.0,
        1.0
      ],
      "min": [
        -1.0,
        -1.0,
        -1.0
      ],
      "type": "VEC3"
    },
    {
      "bufferView": 3,
      "componentType": 5126,
      "count": 3216,
      "max": [
        1.0,
        1.0,
        1.0,
        1.0
      ],
      "min": [
        -1.0,
        -1.0,
        -1.0,
        -1.0
      ],
      "type": "VEC4"
    },
    {
      "bufferView": 1,
      "componentType": 5126,
      "count": 3216,
      "max": [
        0.9961198568344116,
        0.9959998726844788
      ],
      "min": [
        0.004484796896576881,
        0.004280937369912863
      ],
      "type": "VEC2"
    },
    {
      "bufferView": 0,
      "componentType": 5125,
      "count": 10728,
      "type": "SCALAR"
    }
  ],
  "asset": {
    "extras": {
      "author": "Willy Decarpentrie (https://sketchfab.com/skudgee)",
      "license": "CC-BY-4.0 (http://creativecommons.org/licenses/by/4.0/)",
      "source": "https://sketchfab.com/3d-models/generic-truck-2819f02722574b59b5efc5c3e62f3b2c",
      "title": "Generic Truck"
    },
    "generator": "Sketchfab-12.68.0",
    "version": "2.0"
  },
  "bufferViews": [
    {
      "buffer": 0,
      "byteLength": 42912,
      "name": "floatBufferViews",
      "target": 34963
    },
    {
      "buffer": 0,
      "byteLength": 25728,
      "byteOffset": 42912,
      "byteStride": 8,
      "name": "floatBufferViews",
      "target": 34962
    },
    {
      "buffer": 0,
      "byteLength": 77184,
      "byteOffset": 68640,
      "byteStride": 12,
      "name": "floatBufferViews",
      "target": 34962
    },
    {
      "buffer": 0,
      "byteLength": 51456,
      "byteOffset": 145824,
      "byteStride": 16,
      "name": "floatBufferViews",
      "target": 34962
    }
  ],
  "buffers": [
    {
      "byteLength": 197280,
      "uri": "scene.bin"
    }
  ],
  "images": [
    {
      "uri": "textures/Truck_baseColor.png"
    },
    {
      "uri": "textures/Truck_metallicRoughness.png"
    },
    {
      "uri": "textures/Truck_normal.png"
    }
  ],
  "materials": [
    {
      "alphaMode": "BLEND",
      "doubleSided": true,
      "name": "Truck",
      "normalTexture": {
        "index": 2
      },
      "occlusionTexture": {
        "index": 1
      },
      "pbrMetallicRoughness": {
        "baseColorTexture": {
          "index": 0
        },
        "metallicRoughnessTexture": {
          "index": 1
        }
      }
    }
  ],
  "meshes": [
    {
      "name": "Truck_Truck_0",
      "primitives": [
        {
          "attributes": {
            "NORMAL": 1,
            "POSITION": 0,
            "TANGENT": 2,
            "TEXCOORD_0": 3
          },
          "indices": 4,
          "material": 0,
          "mode": 4
        }
      ]
    }
  ],
  "nodes": [
    {
      "children": [
        1
      ],
      "matrix": [
        1.914634108543396,
        0.0,
        0.0,
        0.0,
        0.0,
        4.2513417420750787e-16,
        -1.914634108543396,
        0.0,
        0.0,
        1.914634108543396,
        4.2513417420750787e-16,
        0.0,
        0.0,
        0.0,
        0.0,
        1.0
      ],
      "name": "Sketchfab_model"
    },
    {
      "children": [
        2
      ],
      "matrix": [
        1.0,
        0.0,
        0.0,
        0.0,
        0.0,
        0.0,
        1.0,
        0.0,
        0.0,
        -1.0,
        0.0,
        0.0,
        0.0,
        0.0,
        0.0,
        1.0
      ],
      "name": "6337527ba87a447ab0827bdca007d03b.fbx"
    },
    {
      "children": [
        3
      ],
      "name": "RootNode"
    },
    {
      "children": [
        4
      ],
      "matrix": [
        1.0,
        0.0,
        0.0,
        0.0,
        0.0,
        2.220446049250313e-16,
        -1.0,
        0.0,
        0.0,
        1.0,
        2.220446049250313e-16,
        0.0,
        112.40325927734375,
        35.260379791259766,
        26.661527633666992,
        1.0
      ],
      "name": "Truck"
    },
    {
      "mesh": 0,
      "name": "Truck_Truck_0"
    }
  ],
  "samplers": [
    {
      "magFilter": 9729,
      "minFilter": 9987,
      "wrapS": 10497,
      "wrapT": 10497
    }
  ],
  "scene": 0,
  "scenes": [
    {
      "name": "Sketchfab_Scene",
      "nodes": [
        0
      ]
    }
  ],
  "textures": [
    {
      "sampler": 0,
      "source": 0
    },
    {
      "sampler": 0,
      "source": 1
    },
    {
      "sampler": 0,
      "source": 2
    }
  ]
}
