{
  "accessors": [
    {
      "bufferView": 2,
      "componentType": 5126,
      "count": 6740,
      "max": [
        403.3713684082031,
        1636.45556640625,
        492.95849609375
      ],
      "min": [
        -437.51068115234375,
        -1.976880669593811,
        -485.177001953125
      ],
      "type": "VEC3"
    },
    {
      "bufferView": 2,
      "byteOffset": 80880,
      "componentType": 5126,
      "count": 6740,
      "max": [
        0.9994055032730103,
        0.9511240720748901,
        0.9995001554489136
      ],
      "min": [
        -0.999953031539917,
        -0.9416958093643188,
        -0.9982206225395203
      ],
      "type": "VEC3"
    },
    {
      "bufferView": 1,
      "componentType": 5126,
      "count": 6740,
      "max": [
        -0.0014600000577047467,
        13.331509590148926
      ],
      "min": [
        -0.9995099902153015,
        0.0
      ],
      "type": "VEC2"
    },
    {
      "bufferView": 1,
      "byteOffset": 53920,
      "componentType": 5126,
      "count": 6740,
      "max": [
        0.9993311166763306,
        0.07558611035346985
      ],
      "min": [
        0.0009531185496598482,
        0.0009531185496598482
      ],
      "type": "VEC2"
    },
    {
      "bufferView": 0,
      "componentType": 5125,
      "count": 20778,
      "type": "SCALAR"
    },
    {
      "bufferView": 2,
      "byteOffset": 161760,
      "componentType": 5126,
      "count": 9408,
      "max": [
        572.1438598632813,
        1784.781494140625,
        650.6696166992188
      ],
      "min": [
        -607.6737670898438,
        295.6824645996094,
        -635.4335327148438
      ],
      "type": "VEC3"
    },
    {
      "bufferView": 2,
      "byteOffset": 274656,
      "componentType": 5126,
      "count": 9408,
      "max": [
        0.9998565912246704,
        0.9997327923774719,
        0.9998025298118591
      ],
      "min": [
        -0.9998565912246704,
        -0.9987209439277649,
        -0.9998025298118591
      ],
      "type": "VEC3"
    },
    {
      "bufferView": 1,
      "byteOffset": 107840,
      "componentType": 5126,
      "count": 9408,
      "max": [
        1.000100016593933,
        -0.0
      ],
      "min": [
        9.999999747378752e-05,
        -1.0
      ],
      "type": "VEC2"
    },
    {
      "bufferView": 1,
      "byteOffset": 183104,
      "componentType": 5126,
      "count": 9408,
      "max": [
        0.9994982481002808,
        0.9994992017745972
      ],
      "min": [
        0.0009531185496598482,
        0.03626945987343788
      ],
      "type": "VEC2"
    },
    {
      "bufferView": 0,
      "byteOffset": 83112,
      "componentType": 5125,
      "count": 14112,
      "type": "SCALAR"
    }
  ],
  "asset": {
    "extras": {
      "author": "fadiyasotodeh (https://sketchfab.com/fadiyasotodeh)",
      "license": "CC-BY-4.0 (http://creativecommons.org/licenses/by/4.0/)",
      "source": "https://sketchfab.com/3d-models/real-tree-models-251236ab35764ac9bed017691bac17ea",
      "title": "Real Tree Models"
    },
    "generator": "Sketchfab-15.44.0",
    "version": "2.0"
  },
  "bufferViews": [
    {
      "buffer": 0,
      "byteLength": 139560,
      "name": "floatBufferViews",
      "target": 34963
    },
    {
      "buffer": 0,
      "byteLength": 258368,
      "byteOffset": 139560,
      "byteStride": 8,
      "name": "floatBufferViews",
      "target": 34962
    },
    {
      "buffer": 0,
      "byteLength": 387552,
      "byteOffset": 397928,
      "byteStride": 12,
      "name": "floatBufferViews",
      "target": 34962
    }
  ],
  "buffers": [
    {
      "byteLength": 785480,
      "uri": "scene.bin"
    }
  ],
  "extensionsUsed": [
    "KHR_materials_specular"
  ],
  "images": [
    {
      "uri": "textures/Maple_Bark_baseColor.png"
    },
    {
      "uri": "textures/Maple_Leaf_baseColor.png"
    }
  ],
  "materials": [
    {
      "doubleSided": true,
      "extensions": {
        "KHR_materials_specular": {
          "specularColorFactor": [
            1.0,
            1.0,
            1.0
          ],
          "specularFactor": 0.0
        }
      },
      "name": "Maple_Bark",
      "pbrMetallicRoughness": {
        "baseColorTexture": {
          "index": 0
        },
        "metallicFactor": 0.0,
        "roughnessFactor": 0.6
      }
    },
    {
      "alphaCutoff": 0.302,
      "alphaMode": "MASK",
      "doubleSided": true,
      "extensions": {
        "KHR_materials_specular": {
          "specularColorFactor": [
            1.0,
            1.0,
            1.0
          ],
          "specularFactor": 0.0
        }
      },
      "name": "Maple_Leaf",
      "pbrMetallicRoughness": {
        "baseColorTexture": {
          "index": 1
        },
        "metallicFactor": 0.0,
        "roughnessFactor": 0.6
      }
    }
  ],
  "meshes": [
    {
      "name": "Maple_1_Maple_Bark_0",
      "primitives": [
        {
          "attributes": {
            "NORMAL": 1,
            "POSITION": 0,
            "TEXCOORD_0": 2,
            "TEXCOORD_1": 3
          },
          "indices": 4,
          "material": 0,
          "mode": 4
        }
      ]
    },
    {
      "name": "Maple_1_Maple_Leaf_0",
      "primitives": [
        {
          "attributes": {
            "NORMAL": 6,
            "POSITION": 5,
            "TEXCOORD_0": 7,
            "TEXCOORD_1": 8
          },
          "indices": 9,
          "material": 1,
          "mode": 4
        }
      ]
    }
  ],
  "nodes": [
    {
      "children": [
        1
      ],
      "matrix": [
        1.0,
        0.0,
        0.0,
        0.0,
        0.0,
        2.220446049250313e-16,
        -1.0,
        0.0,
        0.0,
        1.0,
        2.220446049250313e-16,
        0.0,
        0.0,
        0.0,
        0.0,
        1.0
      ],
      "name": "Sketchfab_model"
    },
    {
      "children": [
        2
      ],
      "matrix": [
        0.009999999776482582,
        0.0,
        0.0,
        0.0,
        0.0,
        0.0,
        0.009999999776482582,
        0.0,
        0.0,
        -0.009999999776482582,
        0.0,
        0.0,
        0.0,
        0.0,
        0.0,
        1.0
      ],
      "name": "Tree.fbx"
    },
    {
      "children": [
        3
      ],
      "name": "RootNode"
    },
    {
      "children": [
        4
      ],
      "name": "Tree"
    },
    {
      "children": [
        5,
        6
      ],
      "name": "Maple_1"
    },
    {
      "mesh": 0,
      "name": "Maple_1_Maple_Bark_0"
    },
    {
      "mesh": 1,
      "name": "Maple_1_Maple_Leaf_0"
    }
  ],
  "samplers": [
    {
      "magFilter": 9729,
      "minFilter": 9987,
      "wrapS": 10497,
      "wrapT": 10497
    }
  ],
  "scene": 0,
  "scenes": [
    {
      "name": "Sketchfab_Scene",
      "nodes": [
        0
      ]
    }
  ],
  "textures": [
    {
      "sampler": 0,
      "source": 0
    },
    {
      "sampler": 0,
      "source": 1
    }
  ]
}
