{
  "accessors": [
    {
      "bufferView": 1,
      "componentType": 5126,
      "count": 331,
      "max": [
        5.572545528411865,
        1.4253255128860474,
        1.0
      ],
      "min": [
        -11.97700309753418,
        -1.4253255128860474,
        -4.635273456573486
      ],
      "type": "VEC3"
    },
    {
      "bufferView": 1,
      "byteOffset": 3972,
      "componentType": 5126,
      "count": 331,
      "max": [
        1.0,
        1.0,
        1.0
      ],
      "min": [
        -1.0,
        -1.0,
        -1.0
      ],
      "type": "VEC3"
    },
    {
      "bufferView": 0,
      "componentType": 5125,
      "count": 531,
      "type": "SCALAR"
    },
    {
      "bufferView": 1,
      "byteOffset": 7944,
      "componentType": 5126,
      "count": 22,
      "max": [
        2.104778289794922,
        0.981286346912384,
        0.8866041898727417
      ],
      "min": [
        -0.466869592666626,
        -0.9642719030380249,
        -1.1292275190353394
      ],
      "type": "VEC3"
    },
    {
      "bufferView": 1,
      "byteOffset": 8208,
      "componentType": 5126,
      "count": 22,
      "max": [
        0.915374755859375,
        1.0,
        0.4026029706001282
      ],
      "min": [
        0.0,
        -1.0,
        0.0
      ],
      "type": "VEC3"
    },
    {
      "bufferView": 0,
      "byteOffset": 2124,
      "componentType": 5125,
      "count": 36,
      "type": "SCALAR"
    },
    {
      "bufferView": 1,
      "byteOffset": 8472,
      "componentType": 5126,
      "count": 568,
      "max": [
        5.106331825256348,
        1.2937681674957275,
        2.4389920234680176
      ],
      "min": [
        -12.482292175292969,
        -1.2937681674957275,
        -5.549252986907959
      ],
      "type": "VEC3"
    },
    {
      "bufferView": 1,
      "byteOffset": 15288,
      "componentType": 5126,
      "count": 568,
      "max": [
        1.0,
        1.0,
        1.0
      ],
      "min": [
        -1.0,
        -1.0,
        -1.0
      ],
      "type": "VEC3"
    },
    {
      "bufferView": 0,
      "byteOffset": 2268,
      "componentType": 5125,
      "count": 936,
      "type": "SCALAR"
    },
    {
      "bufferView": 1,
      "byteOffset": 22104,
      "componentType": 5126,
      "count": 8,
      "max": [
        5.106331825256348,
        1.1566612720489502,
        -2.08394718170166
      ],
      "min": [
        5.106331825256348,
        -1.153495192527771,
        -2.587644338607788
      ],
      "type": "VEC3"
    },
    {
      "bufferView": 1,
      "byteOffset": 22200,
      "componentType": 5126,
      "count": 8,
      "max": [
        1.0,
        0.0,
        0.0
      ],
      "min": [
        1.0,
        0.0,
        0.0
      ],
      "type": "VEC3"
    },
    {
      "bufferView": 0,
      "byteOffset": 6012,
      "componentType": 5125,
      "count": 12,
      "type": "SCALAR"
    },
    {
      "bufferView": 1,
      "byteOffset": 22296,
      "componentType": 5126,
      "count": 402,
      "max": [
        6.088485240936279,
        1.2567424774169922,
        2.5432565212249756
      ],
      "min": [
        -12.512568473815918,
        -1.2567423582077026,
        -4.767212867736816
      ],
      "type": "VEC3"
    },
    {
      "bufferView": 1,
      "byteOffset": 27120,
      "componentType": 5126,
      "count": 402,
      "max": [
        1.0,
        1.0,
        1.0
      ],
      "min": [
        -1.0,
        -1.0,
        -1.0
      ],
      "type": "VEC3"
    },
    {
      "bufferView": 0,
      "byteOffset": 6060,
      "componentType": 5125,
      "count": 642,
      "type": "SCALAR"
    },
    {
      "bufferView": 1,
      "byteOffset": 31944,
      "componentType": 5126,
      "count": 64,
      "max": [
        5.767642021179199,
        0.5447460412979126,
        -0.801651120185852
      ],
      "min": [
        -12.403332710266113,
        -0.5447460412979126,
        -3.3025429248809814
      ],
      "type": "VEC3"
    },
    {
      "bufferView": 1,
      "byteOffset": 32712,
      "componentType": 5126,
      "count": 64,
      "max": [
        1.0,
        1.0,
        1.0
      ],
      "min": [
        -1.0,
        -1.0,
        -1.0
      ],
      "type": "VEC3"
    },
    {
      "bufferView": 0,
      "byteOffset": 8628,
      "componentType": 5125,
      "count": 96,
      "type": "SCALAR"
    },
    {
      "bufferView": 1,
      "byteOffset": 33480,
      "componentType": 5126,
      "count": 48,
      "max": [
        -1.549210548400879,
        1.2337151765823364,
        2.2749109268188477
      ],
      "min": [
        -11.621160507202148,
        -1.2337168455123901,
        -2.179176092147827
      ],
      "type": "VEC3"
    },
    {
      "bufferView": 1,
      "byteOffset": 34056,
      "componentType": 5126,
      "count": 48,
      "max": [
        1.0,
        0.9793829917907715,
        0.8185666799545288
      ],
      "min": [
        -1.0,
        -0.9793829917907715,
        -0.8185665607452393
      ],
      "type": "VEC3"
    },
    {
      "bufferView": 0,
      "byteOffset": 9012,
      "componentType": 5125,
      "count": 84,
      "type": "SCALAR"
    }
  ],
  "asset": {
    "extras": {
      "author": "Kolos Studios (https://sketchfab.com/KolosStudios)",
      "license": "CC-BY-4.0 (http://creativecommons.org/licenses/by/4.0/)",
      "source": "https://sketchfab.com/3d-models/low-poly-truck-tank-ea3594f118d64282b759000e66b5695d",
      "title": "Low Poly Truck Tank"
    },
    "generator": "Sketchfab-12.66.0",
    "version": "2.0"
  },
  "bufferViews": [
    {
      "buffer": 0,
      "byteLength": 9348,
      "name": "floatBufferViews",
      "target": 34963
    },
    {
      "buffer": 0,
      "byteLength": 34632,
      "byteOffset": 9348,
      "byteStride": 12,
      "name": "floatBufferViews",
      "target": 34962
    }
  ],
  "buffers": [
    {
      "byteLength": 43980,
      "uri": "scene.bin"
    }
  ],
  "materials": [
    {
      "doubleSided": true,
      "name": "Material.001",
      "pbrMetallicRoughness": {
        "baseColorFactor": [
          0.238398,
          0.246201,
          0.109462,
          1.0
        ],
        "metallicFactor": 0.0,
        "roughnessFactor": 0.8239417257461427
      }
    },
    {
      "doubleSided": true,
      "name": "Material.007",
      "pbrMetallicRoughness": {
        "baseColorFactor": [
          0.229674,
          0.408241,
          0.420024,
          1.0
        ],
        "metallicFactor": 0.0,
        "roughnessFactor": 0.8239417257461427
      }
    },
    {
      "doubleSided": true,
      "name": "Material.002",
      "pbrMetallicRoughness": {
        "baseColorFactor": [
          0.0549687,
          0.0549687,
          0.0549687,
          1.0
        ],
        "metallicFactor": 0.0,
        "roughnessFactor": 0.8239417257461427
      }
    },
    {
      "doubleSided": true,
      "name": "Material.004",
      "pbrMetallicRoughness": {
        "baseColorFactor": [
          0.8,
          0.768498,
          0.0648664,
          1.0
        ],
        "metallicFactor": 0.0,
        "roughnessFactor": 0.8239417257461427
      }
    },
    {
      "doubleSided": true,
      "name": "Material.003",
      "pbrMetallicRoughness": {
        "baseColorFactor": [
          0.147314,
          0.147314,
          0.147314,
          1.0
        ],
        "metallicFactor": 0.0,
        "roughnessFactor": 0.8239417257461427
      }
    },
    {
      "doubleSided": true,
      "name": "Material.006",
      "pbrMetallicRoughness": {
        "baseColorFactor": [
          0.410938,
          0.410938,
          0.410938,
          1.0
        ],
        "metallicFactor": 0.0,
        "roughnessFactor": 0.8239417257461427
      }
    },
    {
      "doubleSided": true,
      "name": "Material",
      "pbrMetallicRoughness": {
        "baseColorFactor": [
          0.273832,
          0.0555298,
          0.0343702,
          1.0
        ],
        "metallicFactor": 0.0,
        "roughnessFactor": 0.8239417257461427
      }
    }
  ],
  "meshes": [
    {
      "name": "Cube.000_Material.001_0",
      "primitives": [
        {
          "attributes": {
            "NORMAL": 1,
            "POSITION": 0
          },
          "indices": 2,
          "material": 0,
          "mode": 4
        }
      ]
    },
    {
      "name": "Cube.000_Material.007_0",
      "primitives": [
        {
          "attributes": {
            "NORMAL": 4,
            "POSITION": 3
          },
          "indices": 5,
          "material": 1,
          "mode": 4
        }
      ]
    },
    {
      "name": "Cube.000_Material.002_0",
      "primitives": [
        {
          "attributes": {
            "NORMAL": 7,
            "POSITION": 6
          },
          "indices": 8,
          "material": 2,
          "mode": 4
        }
      ]
    },
    {
      "name": "Cube.000_Material.004_0",
      "primitives": [
        {
          "attributes": {
            "NORMAL": 10,
            "POSITION": 9
          },
          "indices": 11,
          "material": 3,
          "mode": 4
        }
      ]
    },
    {
      "name": "Cube.000_Material.003_0",
      "primitives": [
        {
          "attributes": {
            "NORMAL": 13,
            "POSITION": 12
          },
          "indices": 14,
          "material": 4,
          "mode": 4
        }
      ]
    },
    {
      "name": "Cube.000_Material.006_0",
      "primitives": [
        {
          "attributes": {
            "NORMAL": 16,
            "POSITION": 15
          },
          "indices": 17,
          "material": 5,
          "mode": 4
        }
      ]
    },
    {
      "name": "Cube.000_Material_0",
      "primitives": [
        {
          "attributes": {
            "NORMAL": 19,
            "POSITION": 18
          },
          "indices": 20,
          "material": 6,
          "mode": 4
        }
      ]
    }
  ],
  "nodes": [
    {
      "children": [
        1
      ],
      "matrix": [
        1.0,
        0.0,
        0.0,
        0.0,
        0.0,
        2.220446049250313e-16,
        -1.0,
        0.0,
        0.0,
        1.0,
        2.220446049250313e-16,
        0.0,
        0.0,
        0.0,
        0.0,
        1.0
      ],
      "name": "Sketchfab_model"
    },
    {
      "children": [
        2
      ],
      "matrix": [
        1.0,
        0.0,
        0.0,
        0.0,
        0.0,
        0.0,
        1.0,
        0.0,
        0.0,
        -1.0,
        0.0,
        0.0,
        0.0,
        0.0,
        0.0,
        1.0
      ],
      "name": "30c9924999424d549becc40f5a2f5836.fbx"
    },
    {
      "children": [
        3
      ],
      "name": "RootNode"
    },
    {
      "children": [
        4,
        5,
        6,
        7,
        8,
        9,
        10
      ],
      "matrix": [
        -58.56436920165571,
        7.17206549145894e-15,
        -2.2805807391296208e-05,
        0.0,
        -6.034675036919054e-05,
        1.169975525850792e-05,
        154.96795654295656,
        0.0,
        1.7289626213975693e-12,
        58.56436920165998,
        -4.4214868725506025e-06,
        0.0,
        -177.1638641357422,
        306.4136047363281,
        1046.72021484375,
        1.0
      ],
      "name": "Cube.000"
    },
    {
      "mesh": 0,
      "name": "Cube.000_Material.001_0"
    },
    {
      "mesh": 1,
      "name": "Cube.000_Material.007_0"
    },
    {
      "mesh": 2,
      "name": "Cube.000_Material.002_0"
    },
    {
      "mesh": 3,
      "name": "Cube.000_Material.004_0"
    },
    {
      "mesh": 4,
      "name": "Cube.000_Material.003_0"
    },
    {
      "mesh": 5,
      "name": "Cube.000_Material.006_0"
    },
    {
      "mesh": 6,
      "name": "Cube.000_Material_0"
    }
  ],
  "scene": 0,
  "scenes": [
    {
      "name": "Sketchfab_Scene",
      "nodes": [
        0
      ]
    }
  ]
}
