{
  "accessors": [
    {
      "bufferView": 1,
      "componentType": 5126,
      "count": 435,
      "max": [
        5.572545528411865,
        1.4253255128860474,
        1.9204847812652588
      ],
      "min": [
        -11.97700309753418,
        -1.4253255128860474,
        -4.635273456573486
      ],
      "type": "VEC3"
    },
    {
      "bufferView": 1,
      "byteOffset": 5220,
      "componentType": 5126,
      "count": 435,
      "max": [
        1.0,
        1.0,
        1.0
      ],
      "min": [
        -1.0,
        -1.0,
        -1.0
      ],
      "type": "VEC3"
    },
    {
      "bufferView": 0,
      "componentType": 5125,
      "count": 705,
      "type": "SCALAR"
    },
    {
      "bufferView": 1,
      "byteOffset": 10440,
      "componentType": 5126,
      "count": 22,
      "max": [
        2.104778289794922,
        0.981286346912384,
        0.8866041898727417
      ],
      "min": [
        -0.466869592666626,
        -0.9642719030380249,
        -1.1292275190353394
      ],
      "type": "VEC3"
    },
    {
      "bufferView": 1,
      "byteOffset": 10704,
      "componentType": 5126,
      "count": 22,
      "max": [
        0.915374755859375,
        1.0,
        0.4026029706001282
      ],
      "min": [
        0.0,
        -1.0,
        0.0
      ],
      "type": "VEC3"
    },
    {
      "bufferView": 0,
      "byteOffset": 2820,
      "componentType": 5125,
      "count": 36,
      "type": "SCALAR"
    },
    {
      "bufferView": 1,
      "byteOffset": 10968,
      "componentType": 5126,
      "count": 496,
      "max": [
        5.106331825256348,
        1.2937681674957275,
        0.02500617504119873
      ],
      "min": [
        -12.434412002563477,
        -1.2937681674957275,
        -5.549252986907959
      ],
      "type": "VEC3"
    },
    {
      "bufferView": 1,
      "byteOffset": 16920,
      "componentType": 5126,
      "count": 496,
      "max": [
        1.0,
        1.0,
        1.0
      ],
      "min": [
        -1.0,
        -1.0,
        -1.0
      ],
      "type": "VEC3"
    },
    {
      "bufferView": 0,
      "byteOffset": 2964,
      "componentType": 5125,
      "count": 816,
      "type": "SCALAR"
    },
    {
      "bufferView": 1,
      "byteOffset": 22872,
      "componentType": 5126,
      "count": 8,
      "max": [
        5.106331825256348,
        1.1566612720489502,
        -2.08394718170166
      ],
      "min": [
        5.106331825256348,
        -1.153495192527771,
        -2.587644338607788
      ],
      "type": "VEC3"
    },
    {
      "bufferView": 1,
      "byteOffset": 22968,
      "componentType": 5126,
      "count": 8,
      "max": [
        1.0,
        0.0,
        0.0
      ],
      "min": [
        1.0,
        0.0,
        0.0
      ],
      "type": "VEC3"
    },
    {
      "bufferView": 0,
      "byteOffset": 6228,
      "componentType": 5125,
      "count": 12,
      "type": "SCALAR"
    },
    {
      "bufferView": 1,
      "byteOffset": 23064,
      "componentType": 5126,
      "count": 262,
      "max": [
        6.088485240936279,
        1.2567424774169922,
        -1.9432854652404785
      ],
      "min": [
        -11.968708038330078,
        -1.2567423582077026,
        -4.767212867736816
      ],
      "type": "VEC3"
    },
    {
      "bufferView": 1,
      "byteOffset": 26208,
      "componentType": 5126,
      "count": 262,
      "max": [
        1.0,
        1.0,
        1.0
      ],
      "min": [
        -1.0,
        -1.0,
        -1.0
      ],
      "type": "VEC3"
    },
    {
      "bufferView": 0,
      "byteOffset": 6276,
      "componentType": 5125,
      "count": 420,
      "type": "SCALAR"
    },
    {
      "bufferView": 1,
      "byteOffset": 29352,
      "componentType": 5126,
      "count": 24,
      "max": [
        5.767642021179199,
        0.5447460412979126,
        -1.4498176574707031
      ],
      "min": [
        5.308091163635254,
        -0.5447460412979126,
        -3.3025429248809814
      ],
      "type": "VEC3"
    },
    {
      "bufferView": 1,
      "byteOffset": 29640,
      "componentType": 5126,
      "count": 24,
      "max": [
        1.0,
        1.0,
        1.0
      ],
      "min": [
        -1.0,
        -1.0,
        -1.0
      ],
      "type": "VEC3"
    },
    {
      "bufferView": 0,
      "byteOffset": 7956,
      "componentType": 5125,
      "count": 36,
      "type": "SCALAR"
    },
    {
      "bufferView": 1,
      "byteOffset": 29928,
      "componentType": 5126,
      "count": 36,
      "max": [
        -1.4519639015197754,
        1.3657331466674805,
        1.890692949295044
      ],
      "min": [
        -11.862320899963379,
        -1.3765681982040405,
        -2.3086013793945313
      ],
      "type": "VEC3"
    },
    {
      "bufferView": 1,
      "byteOffset": 30360,
      "componentType": 5126,
      "count": 36,
      "max": [
        1.0,
        1.0,
        1.0
      ],
      "min": [
        -1.0,
        -1.0,
        -1.0
      ],
      "type": "VEC3"
    },
    {
      "bufferView": 0,
      "byteOffset": 8100,
      "componentType": 5125,
      "count": 60,
      "type": "SCALAR"
    }
  ],
  "asset": {
    "extras": {
      "author": "Kolos Studios (https://sketchfab.com/KolosStudios)",
      "license": "CC-BY-4.0 (http://creativecommons.org/licenses/by/4.0/)",
      "source": "https://sketchfab.com/3d-models/low-poly-military-truck-9fd961a22cb84b9383570869b2f0efa9",
      "title": "low poly military truck"
    },
    "generator": "Sketchfab-13.74.0",
    "version": "2.0"
  },
  "bufferViews": [
    {
      "buffer": 0,
      "byteLength": 8340,
      "name": "floatBufferViews",
      "target": 34963
    },
    {
      "buffer": 0,
      "byteLength": 30792,
      "byteOffset": 8340,
      "byteStride": 12,
      "name": "floatBufferViews",
      "target": 34962
    }
  ],
  "buffers": [
    {
      "byteLength": 39132,
      "uri": "scene.bin"
    }
  ],
  "materials": [
    {
      "doubleSided": true,
      "name": "Material.001",
      "pbrMetallicRoughness": {
        "baseColorFactor": [
          0.238398,
          0.246201,
          0.109462,
          1.0
        ],
        "metallicFactor": 0.0,
        "roughnessFactor": 0.8239417257461427
      }
    },
    {
      "doubleSided": true,
      "name": "Material.007",
      "pbrMetallicRoughness": {
        "baseColorFactor": [
          0.229674,
          0.408241,
          0.420024,
          1.0
        ],
        "metallicFactor": 0.0,
        "roughnessFactor": 0.8239417257461427
      }
    },
    {
      "doubleSided": true,
      "name": "Material.002",
      "pbrMetallicRoughness": {
        "baseColorFactor": [
          0.0549687,
          0.0549687,
          0.0549687,
          1.0
        ],
        "metallicFactor": 0.0,
        "roughnessFactor": 0.8239417257461427
      }
    },
    {
      "doubleSided": true,
      "name": "Material.004",
      "pbrMetallicRoughness": {
        "baseColorFactor": [
          0.8,
          0.768498,
          0.0648664,
          1.0
        ],
        "metallicFactor": 0.0,
        "roughnessFactor": 0.8239417257461427
      }
    },
    {
      "doubleSided": true,
      "name": "Material.003",
      "pbrMetallicRoughness": {
        "baseColorFactor": [
          0.147314,
          0.147314,
          0.147314,
          1.0
        ],
        "metallicFactor": 0.0,
        "roughnessFactor": 0.8239417257461427
      }
    },
    {
      "doubleSided": true,
      "name": "Material.006",
      "pbrMetallicRoughness": {
        "baseColorFactor": [
          0.410938,
          0.410938,
          0.410938,
          1.0
        ],
        "metallicFactor": 0.0,
        "roughnessFactor": 0.8239417257461427
      }
    },
    {
      "doubleSided": true,
      "name": "Material.005",
      "pbrMetallicRoughness": {
        "baseColorFactor": [
          0.380428,
          0.393114,
          0.171716,
          1.0
        ],
        "metallicFactor": 0.0,
        "roughnessFactor": 0.8239417257461427
      }
    }
  ],
  "meshes": [
    {
      "name": "Cube.004_Material.001_0",
      "primitives": [
        {
          "attributes": {
            "NORMAL": 1,
            "POSITION": 0
          },
          "indices": 2,
          "material": 0,
          "mode": 4
        }
      ]
    },
    {
      "name": "Cube.004_Material.007_0",
      "primitives": [
        {
          "attributes": {
            "NORMAL": 4,
            "POSITION": 3
          },
          "indices": 5,
          "material": 1,
          "mode": 4
        }
      ]
    },
    {
      "name": "Cube.004_Material.002_0",
      "primitives": [
        {
          "attributes": {
            "NORMAL": 7,
            "POSITION": 6
          },
          "indices": 8,
          "material": 2,
          "mode": 4
        }
      ]
    },
    {
      "name": "Cube.004_Material.004_0",
      "primitives": [
        {
          "attributes": {
            "NORMAL": 10,
            "POSITION": 9
          },
          "indices": 11,
          "material": 3,
          "mode": 4
        }
      ]
    },
    {
      "name": "Cube.004_Material.003_0",
      "primitives": [
        {
          "attributes": {
            "NORMAL": 13,
            "POSITION": 12
          },
          "indices": 14,
          "material": 4,
          "mode": 4
        }
      ]
    },
    {
      "name": "Cube.004_Material.006_0",
      "primitives": [
        {
          "attributes": {
            "NORMAL": 16,
            "POSITION": 15
          },
          "indices": 17,
          "material": 5,
          "mode": 4
        }
      ]
    },
    {
      "name": "Cube.004_Material.005_0",
      "primitives": [
        {
          "attributes": {
            "NORMAL": 19,
            "POSITION": 18
          },
          "indices": 20,
          "material": 6,
          "mode": 4
        }
      ]
    }
  ],
  "nodes": [
    {
      "children": [
        1
      ],
      "matrix": [
        1.0,
        0.0,
        0.0,
        0.0,
        0.0,
        2.220446049250313e-16,
        -1.0,
        0.0,
        0.0,
        1.0,
        2.220446049250313e-16,
        0.0,
        0.0,
        0.0,
        0.0,
        1.0
      ],
      "name": "Sketchfab_model"
    },
    {
      "children": [
        2
      ],
      "matrix": [
        1.0,
        0.0,
        0.0,
        0.0,
        0.0,
        0.0,
        1.0,
        0.0,
        0.0,
        -1.0,
        0.0,
        0.0,
        0.0,
        0.0,
        0.0,
        1.0
      ],
      "name": "00cd2d4579c446f0a06eeaaa0c25b957.fbx"
    },
    {
      "children": [
        3
      ],
      "name": "RootNode"
    },
    {
      "children": [
        4,
        5,
        6,
        7,
        8,
        9,
        10
      ],
      "matrix": [
        -58.56436920165571,
        7.17206549145894e-15,
        -2.2805807391296208e-05,
        0.0,
        -6.034675036919054e-05,
        1.169975525850792e-05,
        154.96795654295656,
        0.0,
        1.7289626213975693e-12,
        58.56436920165998,
        -4.4214868725506025e-06,
        0.0,
        -177.1638641357422,
        306.4136047363281,
        567.4698486328125,
        1.0
      ],
      "name": "Cube.004"
    },
    {
      "mesh": 0,
      "name": "Cube.004_Material.001_0"
    },
    {
      "mesh": 1,
      "name": "Cube.004_Material.007_0"
    },
    {
      "mesh": 2,
      "name": "Cube.004_Material.002_0"
    },
    {
      "mesh": 3,
      "name": "Cube.004_Material.004_0"
    },
    {
      "mesh": 4,
      "name": "Cube.004_Material.003_0"
    },
    {
      "mesh": 5,
      "name": "Cube.004_Material.006_0"
    },
    {
      "mesh": 6,
      "name": "Cube.004_Material.005_0"
    }
  ],
  "scene": 0,
  "scenes": [
    {
      "name": "Sketchfab_Scene",
      "nodes": [
        0
      ]
    }
  ]
}
